<svg width="17" height="16" viewBox="0 0 17 16" fill="none" xmlns="http://www.w3.org/2000/svg">
<path d="M1.5 2.5C1.5 2.10218 1.65804 1.72064 1.93934 1.43934C2.22064 1.15804 2.60218 1 3 1H6C6.39782 1 6.77936 1.15804 7.06066 1.43934C7.34196 1.72064 7.5 2.10218 7.5 2.5V5.5C7.5 5.89782 7.34196 6.27936 7.06066 6.56066C6.77936 6.84196 6.39782 7 6 7H3C2.60218 7 2.22064 6.84196 1.93934 6.56066C1.65804 6.27936 1.5 5.89782 1.5 5.5V2.5ZM9.5 2.5C9.5 2.10218 9.65804 1.72064 9.93934 1.43934C10.2206 1.15804 10.6022 1 11 1H14C14.3978 1 14.7794 1.15804 15.0607 1.43934C15.342 1.72064 15.5 2.10218 15.5 2.5V5.5C15.5 5.89782 15.342 6.27936 15.0607 6.56066C14.7794 6.84196 14.3978 7 14 7H11C10.6022 7 10.2206 6.84196 9.93934 6.56066C9.65804 6.27936 9.5 5.89782 9.5 5.5V2.5ZM1.5 10.5C1.5 10.1022 1.65804 9.72064 1.93934 9.43934C2.22064 9.15804 2.60218 9 3 9H6C6.39782 9 6.77936 9.15804 7.06066 9.43934C7.34196 9.72064 7.5 10.1022 7.5 10.5V13.5C7.5 13.8978 7.34196 14.2794 7.06066 14.5607C6.77936 14.842 6.39782 15 6 15H3C2.60218 15 2.22064 14.842 1.93934 14.5607C1.65804 14.2794 1.5 13.8978 1.5 13.5V10.5ZM9.5 10.5C9.5 10.1022 9.65804 9.72064 9.93934 9.43934C10.2206 9.15804 10.6022 9 11 9H14C14.3978 9 14.7794 9.15804 15.0607 9.43934C15.342 9.72064 15.5 10.1022 15.5 10.5V13.5C15.5 13.8978 15.342 14.2794 15.0607 14.5607C14.7794 14.842 14.3978 15 14 15H11C10.6022 15 10.2206 14.842 9.93934 14.5607C9.65804 14.2794 9.5 13.8978 9.5 13.5V10.5Z" fill="#252B42"/>
</svg>
