<svg width="17" height="16" viewBox="0 0 17 16" fill="none" xmlns="http://www.w3.org/2000/svg">
<path fill-rule="evenodd" clip-rule="evenodd" d="M5.00063 12.5009C5.00063 12.3683 5.05331 12.2411 5.14708 12.1473C5.24085 12.0536 5.36802 12.0009 5.50063 12.0009H14.5006C14.6332 12.0009 14.7604 12.0536 14.8542 12.1473C14.948 12.2411 15.0006 12.3683 15.0006 12.5009C15.0006 12.6335 14.948 12.7607 14.8542 12.8544C14.7604 12.9482 14.6332 13.0009 14.5006 13.0009H5.50063C5.36802 13.0009 5.24085 12.9482 5.14708 12.8544C5.05331 12.7607 5.00063 12.6335 5.00063 12.5009ZM5.00063 8.50089C5.00063 8.36829 5.05331 8.24111 5.14708 8.14734C5.24085 8.05357 5.36802 8.00089 5.50063 8.00089H14.5006C14.6332 8.00089 14.7604 8.05357 14.8542 8.14734C14.948 8.24111 15.0006 8.36829 15.0006 8.50089C15.0006 8.6335 14.948 8.76068 14.8542 8.85445C14.7604 8.94822 14.6332 9.00089 14.5006 9.00089H5.50063C5.36802 9.00089 5.24085 8.94822 5.14708 8.85445C5.05331 8.76068 5.00063 8.6335 5.00063 8.50089ZM5.00063 4.50089C5.00063 4.36829 5.05331 4.24111 5.14708 4.14734C5.24085 4.05357 5.36802 4.00089 5.50063 4.00089H14.5006C14.6332 4.00089 14.7604 4.05357 14.8542 4.14734C14.948 4.24111 15.0006 4.36829 15.0006 4.50089C15.0006 4.6335 14.948 4.76068 14.8542 4.85445C14.7604 4.94822 14.6332 5.00089 14.5006 5.00089H5.50063C5.36802 5.00089 5.24085 4.94822 5.14708 4.85445C5.05331 4.76068 5.00063 4.6335 5.00063 4.50089ZM3.85463 3.14689C3.90119 3.19334 3.93814 3.24851 3.96334 3.30926C3.98855 3.37001 4.00153 3.43513 4.00153 3.50089C4.00153 3.56666 3.98855 3.63178 3.96334 3.69253C3.93814 3.75327 3.90119 3.80845 3.85463 3.85489L2.35463 5.35489C2.30819 5.40146 2.25301 5.4384 2.19227 5.46361C2.13152 5.48881 2.0664 5.50179 2.00063 5.50179C1.93486 5.50179 1.86974 5.48881 1.809 5.46361C1.74825 5.4384 1.69308 5.40146 1.64663 5.35489L1.14663 4.85489C1.10014 4.80841 1.06327 4.75322 1.03811 4.69248C1.01295 4.63174 1 4.56664 1 4.50089C1 4.43515 1.01295 4.37005 1.03811 4.30931C1.06327 4.24857 1.10014 4.19338 1.14663 4.14689C1.19312 4.10041 1.24831 4.06353 1.30905 4.03837C1.36979 4.01321 1.43489 4.00026 1.50063 4.00026C1.56638 4.00026 1.63148 4.01321 1.69222 4.03837C1.75295 4.06353 1.80814 4.10041 1.85463 4.14689L2.00063 4.29389L3.14663 3.14689C3.19308 3.10033 3.24825 3.06339 3.309 3.03818C3.36974 3.01297 3.43486 3 3.50063 3C3.5664 3 3.63152 3.01297 3.69227 3.03818C3.75301 3.06339 3.80819 3.10033 3.85463 3.14689ZM3.85463 7.14689C3.90119 7.19334 3.93814 7.24852 3.96334 7.30926C3.98855 7.37001 4.00153 7.43513 4.00153 7.50089C4.00153 7.56666 3.98855 7.63178 3.96334 7.69253C3.93814 7.75327 3.90119 7.80845 3.85463 7.85489L2.35463 9.35489C2.30819 9.40146 2.25301 9.4384 2.19227 9.46361C2.13152 9.48881 2.0664 9.50179 2.00063 9.50179C1.93486 9.50179 1.86974 9.48881 1.809 9.46361C1.74825 9.4384 1.69308 9.40146 1.64663 9.35489L1.14663 8.85489C1.05275 8.76101 1 8.63367 1 8.50089C1 8.36812 1.05275 8.24078 1.14663 8.14689C1.24052 8.05301 1.36786 8.00026 1.50063 8.00026C1.63341 8.00026 1.76074 8.05301 1.85463 8.14689L2.00063 8.29389L3.14663 7.14689C3.19308 7.10033 3.24825 7.06339 3.309 7.03818C3.36974 7.01297 3.43486 7 3.50063 7C3.5664 7 3.63152 7.01297 3.69227 7.03818C3.75301 7.06339 3.80819 7.10033 3.85463 7.14689ZM3.85463 11.1469C3.90119 11.1933 3.93814 11.2485 3.96334 11.3093C3.98855 11.37 4.00153 11.4351 4.00153 11.5009C4.00153 11.5667 3.98855 11.6318 3.96334 11.6925C3.93814 11.7533 3.90119 11.8084 3.85463 11.8549L2.35463 13.3549C2.30819 13.4015 2.25301 13.4384 2.19227 13.4636C2.13152 13.4888 2.0664 13.5018 2.00063 13.5018C1.93486 13.5018 1.86974 13.4888 1.809 13.4636C1.74825 13.4384 1.69308 13.4015 1.64663 13.3549L1.14663 12.8549C1.05275 12.761 1 12.6337 1 12.5009C1 12.3681 1.05275 12.2408 1.14663 12.1469C1.24052 12.053 1.36786 12.0003 1.50063 12.0003C1.63341 12.0003 1.76074 12.053 1.85463 12.1469L2.00063 12.2939L3.14663 11.1469C3.19308 11.1003 3.24825 11.0634 3.309 11.0382C3.36974 11.013 3.43486 11 3.50063 11C3.5664 11 3.63152 11.013 3.69227 11.0382C3.75301 11.0634 3.80819 11.1003 3.85463 11.1469Z" fill="#737373"/>
</svg>
